<svg width="52" height="60" viewBox="0 0 52 60" fill="none" xmlns="http://www.w3.org/2000/svg">
<path d="M29.9091 59.82C24.9905 59.8199 20.1477 58.6066 15.8099 56.2879C11.4721 53.9692 7.77305 50.6164 5.04046 46.5267C2.30786 42.4369 0.626064 37.7364 0.144002 32.8414C-0.33806 27.9464 0.394503 23.0081 2.27681 18.4638C4.15913 13.9196 7.13309 9.90962 10.9353 6.78925C14.7374 3.66887 19.2505 1.53439 24.0746 0.574768C28.8988 -0.384856 33.8851 -0.139965 38.592 1.28778C43.2989 2.71553 47.581 5.28206 51.0591 8.76001L47.5241 12.296C44.0358 8.80756 39.5902 6.43355 34.751 5.47479C29.9118 4.51604 24.8969 5.01572 20.342 6.91058C15.7871 8.80545 11.8975 12.0101 9.16616 16.1183C6.43483 20.2265 4.98485 25.0532 5.00002 29.9865C5.01519 34.9197 6.49485 39.7373 9.25139 43.8286C12.0079 47.9199 15.9172 51.1006 20.4836 52.9674C25.0501 54.8342 30.068 55.3031 34.9012 54.3146C39.7344 53.3261 44.1653 50.9248 47.6321 47.415L51.1881 50.931C48.4131 53.7565 45.1009 55.9985 41.4466 57.5251C37.7922 59.0516 33.8695 59.8319 29.9091 59.82V59.82Z" fill="#818286"/>
<path d="M49.1979 30.3809L40.7679 38.8109L38.6479 36.6909L43.4579 31.8809H20.0879V28.8809H43.4579L38.6479 24.0709L40.7679 21.9509L49.1979 30.3809Z" fill="white"/>
</svg>
