<svg width="48" height="48" viewBox="0 0 48 48" fill="none" xmlns="http://www.w3.org/2000/svg">
<path d="M25.68 31.92L31.92 25.68C32.4 25.2 32.64 24.64 32.64 24C32.64 23.36 32.4 22.8 31.92 22.32L25.62 16.02C25.18 15.58 24.6304 15.3696 23.9712 15.3888C23.3104 15.4096 22.76 15.64 22.32 16.08C21.88 16.52 21.66 17.08 21.66 17.76C21.66 18.44 21.88 19 22.32 19.44L24.48 21.6H16.74C16.06 21.6 15.5 21.8296 15.06 22.2888C14.62 22.7496 14.4 23.32 14.4 24C14.4 24.68 14.6304 25.2496 15.0912 25.7088C15.5504 26.1696 16.12 26.4 16.8 26.4H24.48L22.26 28.62C21.82 29.06 21.6096 29.6104 21.6288 30.2712C21.6496 30.9304 21.88 31.48 22.32 31.92C22.76 32.36 23.32 32.58 24 32.58C24.68 32.58 25.24 32.36 25.68 31.92ZM24 48C20.68 48 17.56 47.3696 14.64 46.1088C11.72 44.8496 9.18 43.14 7.02 40.98C4.86 38.82 3.1504 36.28 1.8912 33.36C0.6304 30.44 0 27.32 0 24C0 20.68 0.6304 17.56 1.8912 14.64C3.1504 11.72 4.86 9.18 7.02 7.02C9.18 4.86 11.72 3.1496 14.64 1.8888C17.56 0.6296 20.68 0 24 0C27.32 0 30.44 0.6296 33.36 1.8888C36.28 3.1496 38.82 4.86 40.98 7.02C43.14 9.18 44.8496 11.72 46.1088 14.64C47.3696 17.56 48 20.68 48 24C48 27.32 47.3696 30.44 46.1088 33.36C44.8496 36.28 43.14 38.82 40.98 40.98C38.82 43.14 36.28 44.8496 33.36 46.1088C30.44 47.3696 27.32 48 24 48ZM24 43.2C29.32 43.2 33.8504 41.3304 37.5912 37.5912C41.3304 33.8504 43.2 29.32 43.2 24C43.2 18.68 41.3304 14.1496 37.5912 10.4088C33.8504 6.6696 29.32 4.8 24 4.8C18.68 4.8 14.1504 6.6696 10.4112 10.4088C6.6704 14.1496 4.8 18.68 4.8 24C4.8 29.32 6.6704 33.8504 10.4112 37.5912C14.1504 41.3304 18.68 43.2 24 43.2Z" fill="#FFFDFD"/>
</svg>
