<?xml version="1.0" encoding="UTF-8"?>
<svg id="Layer_1" data-name="Layer 1" xmlns="http://www.w3.org/2000/svg" viewBox="0 0 535.4 169.38">
  <defs>
    <style>
      .cls-1 {
        fill: none;
        stroke-width: 5px;
      }

      .cls-1, .cls-2 {
        stroke: #fff;
        stroke-miterlimit: 10;
      }

      .cls-2 {
        fill: #fff;
      }
    </style>
  </defs>
  <polygon class="cls-1" points="98.04 48.6 78.26 83.52 98.04 118.79 139.54 118.79 159.68 83.7 139.54 48.6 98.04 48.6"/>
  <g>
    <rect class="cls-2" x="184.12" y="62.47" width="29.36" height="6.5"/>
    <rect class="cls-2" x="184.12" y="79.67" width="26.3" height="5.84"/>
    <rect class="cls-2" x="184.12" y="96.48" width="30.01" height="5.76"/>
  </g>
  <g>
    <polygon class="cls-2" points="224.14 72.54 224.14 102.4 230.83 102.4 230.83 81.27 224.14 72.54"/>
    <polygon class="cls-2" points="225.11 62.3 225.11 64.24 252.82 102.4 258.42 102.4 258.42 62.3 251.96 62.3 251.7 89.6 242.25 76.96 231.8 62.3 225.11 62.3"/>
  </g>
  <g>
    <path class="cls-2" d="m363.14,62.25h-15.56c-.06,0-.13,0-.19.03l-2.51.75s-.04.01-.06.02l-3,1.2s-.04.02-.06.03l-2.39,1.26s-.03.02-.05.03l-1.82,1.17s-.07.05-.1.08l-1.91,1.85-1.68,1.8s-.04.05-.06.08l-1.29,1.88s-.03.05-.05.08l-1.17,2.35s-.04.08-.05.13l-.66,2.5-.54,2.44s-.02.09-.02.14v4.71s0,.07,0,.11l.53,3.06s.02.09.04.13l1.19,3.03s.02.04.03.06l1.25,2.43s.03.06.05.09l1.77,2.42s.05.06.07.08l1.88,1.82s.06.05.09.07l1.76,1.17s.04.03.06.04l2.45,1.25s.04.02.06.03l3.03,1.21,1.86.64c.07.02.14.04.21.04h16.74c.36,0,.65-.29.65-.65v-11.16l-5.7.05c-.36,0-.65.3-.65.67l.09,4.19c0,.36-.28.66-.64.67l-1.98.05-3.21-.06s-.05,0-.07,0l-4.04-.54c-.05,0-.11-.02-.16-.04l-3.03-1.22c-.05-.02-.1-.05-.14-.08l-2.37-1.73s-.09-.08-.13-.13l-1.86-2.38s-.05-.08-.07-.12l-1.74-3.6c-.04-.09-.07-.19-.07-.28v-6.76c0-.09.02-.17.05-.25l1.22-2.9s.02-.05.04-.08l1.41-2.39c.27-.46.6-.88.97-1.26l.64-.64c.05-.05.11-.1.18-.13l2.44-1.16s.04-.02.07-.03l1.89-.66,1.47-.46c.06-.02.13-.03.19-.03l14.55-.06c.36,0,.65-.29.65-.65v-6.38h-.57Z"/>
    <rect class="cls-2" x="349.31" y="80.45" width="14.87" height="6.06"/>
  </g>
  <g>
    <rect class="cls-2" x="421.36" y="62.36" width="32.72" height="6.94"/>
    <rect class="cls-2" x="433.92" y="75.36" width="6.83" height="26.99"/>
  </g>
  <g>
    <rect class="cls-2" x="378.26" y="62.37" width="6.79" height="39.96"/>
    <rect class="cls-2" x="404.6" y="62.37" width="6.79" height="39.96"/>
    <rect class="cls-2" x="389.73" y="80.89" width="14.87" height="6.06"/>
  </g>
  <rect class="cls-2" x="524.03" y="61.94" width="6.79" height="39.96"/>
  <g>
    <polygon class="cls-2" points="486.5 72.27 474.49 102.07 481.5 102.07 490.18 81.21 486.5 72.27"/>
    <polygon class="cls-2" points="490.88 62.63 505.08 102.07 512.09 102.07 497.98 62.63 490.88 62.63"/>
  </g>
  <polygon class="cls-2" points="271.18 62.26 271.18 102.45 298.62 102.45 298.62 96.13 277.98 96.01 277.86 62.26 271.18 62.26"/>
  <rect class="cls-2" x="311.39" y="62.37" width="6.79" height="39.96"/>
  <polygon class="cls-1" points="27.38 8.65 7.6 43.57 27.38 78.84 68.89 78.84 89.02 43.74 68.89 8.65 27.38 8.65"/>
  <polygon class="cls-1" points="27.38 89.15 7.6 124.07 27.38 159.34 68.89 159.34 89.02 124.25 68.89 89.15 27.38 89.15"/>
</svg>