<?xml version="1.0" encoding="UTF-8" standalone="no" ?>
<!DOCTYPE svg PUBLIC "-//W3C//DTD SVG 1.1//EN" "http://www.w3.org/Graphics/SVG/1.1/DTD/svg11.dtd">
<svg xmlns="http://www.w3.org/2000/svg" xmlns:xlink="http://www.w3.org/1999/xlink" version="1.1" width="1080" height="200" viewBox="0 450 1080 200" xml:space="preserve">
<desc>Created with Fabric.js 5.2.4</desc>
<defs>
</defs>
<g transform="matrix(1 0 0 1 540 540)" id="abfd976e-085d-4a3e-a1eb-7c37047bd219"  >
<rect style="stroke: none; stroke-width: 1; stroke-dasharray: none; stroke-linecap: butt; stroke-dashoffset: 0; stroke-linejoin: miter; stroke-miterlimit: 4; fill: rgb(255,255,255); fill-rule: nonzero; opacity: 1; visibility: hidden;" vector-effect="non-scaling-stroke"  x="-540" y="-540" rx="0" ry="0" width="1080" height="1080" />
</g>
<g transform="matrix(1 0 0 1 540 540)" id="9be070c9-eb1a-4c9e-ac75-7443dfc1009d"  >
</g>
<g transform="matrix(2.95 0 0 2.95 540 540)"  >
<g style="" vector-effect="non-scaling-stroke"   >
		<g transform="matrix(1 0 0 1 -158.67 -16.48)"  >
<rect style="stroke: rgb(255,255,255); stroke-width: 1; stroke-dasharray: none; stroke-linecap: butt; stroke-dashoffset: 0; stroke-linejoin: miter; stroke-miterlimit: 10; fill: rgb(255,255,255); fill-rule: nonzero; opacity: 1;" vector-effect="non-scaling-stroke"  x="-14.68" y="-3.25" rx="0" ry="0" width="29.36" height="6.5" />
</g>
		<g transform="matrix(1 0 0 1 -160.2 0.39)"  >
<rect style="stroke: rgb(255,255,255); stroke-width: 1; stroke-dasharray: none; stroke-linecap: butt; stroke-dashoffset: 0; stroke-linejoin: miter; stroke-miterlimit: 10; fill: rgb(255,255,255); fill-rule: nonzero; opacity: 1;" vector-effect="non-scaling-stroke"  x="-13.15" y="-2.92" rx="0" ry="0" width="26.3" height="5.84" />
</g>
		<g transform="matrix(1 0 0 1 -158.34 17.16)"  >
<rect style="stroke: rgb(255,255,255); stroke-width: 1; stroke-dasharray: none; stroke-linecap: butt; stroke-dashoffset: 0; stroke-linejoin: miter; stroke-miterlimit: 10; fill: rgb(255,255,255); fill-rule: nonzero; opacity: 1;" vector-effect="non-scaling-stroke"  x="-15.005" y="-2.88" rx="0" ry="0" width="30.01" height="5.76" />
</g>
		<g transform="matrix(1 0 0 1 -129.98 5.27)"  >
<polygon style="stroke: rgb(255,255,255); stroke-width: 1; stroke-dasharray: none; stroke-linecap: butt; stroke-dashoffset: 0; stroke-linejoin: miter; stroke-miterlimit: 10; fill: rgb(255,255,255); fill-rule: nonzero; opacity: 1;" vector-effect="non-scaling-stroke"  points="-3.35,-14.93 -3.35,14.93 3.34,14.93 3.34,-6.2 -3.35,-14.93 " />
</g>
		<g transform="matrix(1 0 0 1 -115.7 0.15)"  >
<polygon style="stroke: rgb(255,255,255); stroke-width: 1; stroke-dasharray: none; stroke-linecap: butt; stroke-dashoffset: 0; stroke-linejoin: miter; stroke-miterlimit: 10; fill: rgb(255,255,255); fill-rule: nonzero; opacity: 1;" vector-effect="non-scaling-stroke"  points="-16.66,-20.05 -16.66,-18.11 11.05,20.05 16.66,20.05 16.66,-20.05 10.19,-20.05 9.93,7.25 0.48,-5.39 -9.97,-20.05 -16.66,-20.05 " />
</g>
		<g transform="matrix(1 0 0 1 -10.64 0.16)"  >
<path style="stroke: rgb(255,255,255); stroke-width: 1; stroke-dasharray: none; stroke-linecap: butt; stroke-dashoffset: 0; stroke-linejoin: miter; stroke-miterlimit: 10; fill: rgb(255,255,255); fill-rule: nonzero; opacity: 1;" vector-effect="non-scaling-stroke"  transform=" translate(-346.83, -82.35)" d="M 363.14 62.25 L 347.58 62.25 C 347.52 62.25 347.45 62.25 347.39 62.28 L 344.88 63.03 C 344.88 63.03 344.84 63.04 344.82 63.050000000000004 L 341.82 64.25 C 341.82 64.25 341.78 64.27 341.76 64.28 L 339.37 65.54 C 339.37 65.54 339.34000000000003 65.56 339.32 65.57000000000001 L 337.5 66.74000000000001 C 337.5 66.74000000000001 337.43 66.79 337.4 66.82000000000001 L 335.48999999999995 68.67 L 333.80999999999995 70.47 C 333.80999999999995 70.47 333.7699999999999 70.52 333.74999999999994 70.55 L 332.4599999999999 72.42999999999999 C 332.4599999999999 72.42999999999999 332.42999999999995 72.47999999999999 332.4099999999999 72.50999999999999 L 331.2399999999999 74.85999999999999 C 331.2399999999999 74.85999999999999 331.1999999999999 74.93999999999998 331.1899999999999 74.98999999999998 L 330.52999999999986 77.48999999999998 L 329.98999999999984 79.92999999999998 C 329.98999999999984 79.92999999999998 329.96999999999986 80.01999999999998 329.96999999999986 80.06999999999998 L 329.96999999999986 84.77999999999997 C 329.96999999999986 84.77999999999997 329.96999999999986 84.84999999999997 329.96999999999986 84.88999999999997 L 330.49999999999983 87.94999999999997 C 330.49999999999983 87.94999999999997 330.5199999999998 88.03999999999998 330.53999999999985 88.07999999999997 L 331.72999999999985 91.10999999999997 C 331.72999999999985 91.10999999999997 331.74999999999983 91.14999999999998 331.7599999999998 91.16999999999997 L 333.0099999999998 93.59999999999998 C 333.0099999999998 93.59999999999998 333.0399999999998 93.65999999999998 333.05999999999983 93.68999999999998 L 334.8299999999998 96.10999999999999 C 334.8299999999998 96.10999999999999 334.8799999999998 96.16999999999999 334.8999999999998 96.18999999999998 L 336.7799999999998 98.00999999999998 C 336.7799999999998 98.00999999999998 336.8399999999998 98.05999999999997 336.8699999999998 98.07999999999997 L 338.62999999999977 99.24999999999997 C 338.62999999999977 99.24999999999997 338.6699999999998 99.27999999999997 338.68999999999977 99.28999999999998 L 341.13999999999976 100.53999999999998 C 341.13999999999976 100.53999999999998 341.1799999999998 100.55999999999997 341.19999999999976 100.56999999999998 L 344.22999999999973 101.77999999999997 L 346.08999999999975 102.41999999999997 C 346.15999999999974 102.43999999999997 346.22999999999973 102.45999999999998 346.2999999999997 102.45999999999998 L 363.03999999999974 102.45999999999998 C 363.39999999999975 102.45999999999998 363.6899999999997 102.16999999999997 363.6899999999997 101.80999999999997 L 363.6899999999997 90.64999999999998 L 357.9899999999997 90.69999999999997 C 357.6299999999997 90.69999999999997 357.33999999999975 90.99999999999997 357.33999999999975 91.36999999999998 L 357.4299999999997 95.55999999999997 C 357.4299999999997 95.91999999999997 357.14999999999975 96.21999999999997 356.78999999999974 96.22999999999998 L 354.8099999999997 96.27999999999997 L 351.59999999999974 96.21999999999997 C 351.59999999999974 96.21999999999997 351.5499999999997 96.21999999999997 351.52999999999975 96.21999999999997 L 347.4899999999997 95.67999999999996 C 347.4399999999997 95.67999999999996 347.3799999999997 95.65999999999997 347.3299999999997 95.63999999999996 L 344.2999999999997 94.41999999999996 C 344.2499999999997 94.39999999999996 344.1999999999997 94.36999999999996 344.15999999999974 94.33999999999996 L 341.78999999999974 92.60999999999996 C 341.78999999999974 92.60999999999996 341.69999999999976 92.52999999999996 341.65999999999974 92.47999999999996 L 339.7999999999997 90.09999999999997 C 339.7999999999997 90.09999999999997 339.7499999999997 90.01999999999997 339.72999999999973 89.97999999999996 L 337.9899999999997 86.37999999999997 C 337.9499999999997 86.28999999999996 337.91999999999973 86.18999999999997 337.91999999999973 86.09999999999997 L 337.91999999999973 79.33999999999996 C 337.91999999999973 79.24999999999996 337.9399999999997 79.16999999999996 337.96999999999974 79.08999999999996 L 339.18999999999977 76.18999999999996 C 339.18999999999977 76.18999999999996 339.20999999999975 76.13999999999996 339.2299999999998 76.10999999999996 L 340.6399999999998 73.71999999999996 C 340.9099999999998 73.25999999999996 341.23999999999984 72.83999999999996 341.60999999999984 72.45999999999995 L 342.24999999999983 71.81999999999995 C 342.29999999999984 71.76999999999995 342.35999999999984 71.71999999999996 342.42999999999984 71.68999999999996 L 344.86999999999983 70.52999999999996 C 344.86999999999983 70.52999999999996 344.90999999999985 70.50999999999996 344.9399999999998 70.49999999999996 L 346.8299999999998 69.83999999999996 L 348.29999999999984 69.37999999999997 C 348.35999999999984 69.35999999999997 348.42999999999984 69.34999999999997 348.48999999999984 69.34999999999997 L 363.03999999999985 69.28999999999996 C 363.39999999999986 69.28999999999996 363.6899999999998 68.99999999999996 363.6899999999998 68.63999999999996 L 363.6899999999998 62.259999999999955 L 363.11999999999983 62.259999999999955 Z" stroke-linecap="round" />
</g>
		<g transform="matrix(1 0 0 1 -0.72 1.28)"  >
<rect style="stroke: rgb(255,255,255); stroke-width: 1; stroke-dasharray: none; stroke-linecap: butt; stroke-dashoffset: 0; stroke-linejoin: miter; stroke-miterlimit: 10; fill: rgb(255,255,255); fill-rule: nonzero; opacity: 1;" vector-effect="non-scaling-stroke"  x="-7.435" y="-3.03" rx="0" ry="0" width="14.87" height="6.06" />
</g>
		<g transform="matrix(1 0 0 1 80.25 -16.37)"  >
<rect style="stroke: rgb(255,255,255); stroke-width: 1; stroke-dasharray: none; stroke-linecap: butt; stroke-dashoffset: 0; stroke-linejoin: miter; stroke-miterlimit: 10; fill: rgb(255,255,255); fill-rule: nonzero; opacity: 1;" vector-effect="non-scaling-stroke"  x="-16.36" y="-3.47" rx="0" ry="0" width="32.72" height="6.94" />
</g>
		<g transform="matrix(1 0 0 1 79.87 6.66)"  >
<rect style="stroke: rgb(255,255,255); stroke-width: 1; stroke-dasharray: none; stroke-linecap: butt; stroke-dashoffset: 0; stroke-linejoin: miter; stroke-miterlimit: 10; fill: rgb(255,255,255); fill-rule: nonzero; opacity: 1;" vector-effect="non-scaling-stroke"  x="-3.415" y="-13.495" rx="0" ry="0" width="6.83" height="26.99" />
</g>
		<g transform="matrix(1 0 0 1 24.19 0.15)"  >
<rect style="stroke: rgb(255,255,255); stroke-width: 1; stroke-dasharray: none; stroke-linecap: butt; stroke-dashoffset: 0; stroke-linejoin: miter; stroke-miterlimit: 10; fill: rgb(255,255,255); fill-rule: nonzero; opacity: 1;" vector-effect="non-scaling-stroke"  x="-3.395" y="-19.98" rx="0" ry="0" width="6.79" height="39.96" />
</g>
		<g transform="matrix(1 0 0 1 50.53 0.15)"  >
<rect style="stroke: rgb(255,255,255); stroke-width: 1; stroke-dasharray: none; stroke-linecap: butt; stroke-dashoffset: 0; stroke-linejoin: miter; stroke-miterlimit: 10; fill: rgb(255,255,255); fill-rule: nonzero; opacity: 1;" vector-effect="non-scaling-stroke"  x="-3.395" y="-19.98" rx="0" ry="0" width="6.79" height="39.96" />
</g>
		<g transform="matrix(1 0 0 1 39.7 1.72)"  >
<rect style="stroke: rgb(255,255,255); stroke-width: 1; stroke-dasharray: none; stroke-linecap: butt; stroke-dashoffset: 0; stroke-linejoin: miter; stroke-miterlimit: 10; fill: rgb(255,255,255); fill-rule: nonzero; opacity: 1;" vector-effect="non-scaling-stroke"  x="-7.435" y="-3.03" rx="0" ry="0" width="14.87" height="6.06" />
</g>
		<g transform="matrix(1 0 0 1 169.96 -0.28)"  >
<rect style="stroke: rgb(255,255,255); stroke-width: 1; stroke-dasharray: none; stroke-linecap: butt; stroke-dashoffset: 0; stroke-linejoin: miter; stroke-miterlimit: 10; fill: rgb(255,255,255); fill-rule: nonzero; opacity: 1;" vector-effect="non-scaling-stroke"  x="-3.395" y="-19.98" rx="0" ry="0" width="6.79" height="39.96" />
</g>
		<g transform="matrix(1 0 0 1 124.87 4.97)"  >
<polygon style="stroke: rgb(255,255,255); stroke-width: 1; stroke-dasharray: none; stroke-linecap: butt; stroke-dashoffset: 0; stroke-linejoin: miter; stroke-miterlimit: 10; fill: rgb(255,255,255); fill-rule: nonzero; opacity: 1;" vector-effect="non-scaling-stroke"  points="4.16,-14.9 -7.85,14.9 -0.84,14.9 7.84,-5.96 4.16,-14.9 " />
</g>
		<g transform="matrix(1 0 0 1 144.02 0.15)"  >
<polygon style="stroke: rgb(255,255,255); stroke-width: 1; stroke-dasharray: none; stroke-linecap: butt; stroke-dashoffset: 0; stroke-linejoin: miter; stroke-miterlimit: 10; fill: rgb(255,255,255); fill-rule: nonzero; opacity: 1;" vector-effect="non-scaling-stroke"  points="-10.61,-19.72 3.59,19.72 10.61,19.72 -3.5,-19.72 -10.61,-19.72 " />
</g>
		<g transform="matrix(1 0 0 1 -72.57 0.16)"  >
<polygon style="stroke: rgb(255,255,255); stroke-width: 1; stroke-dasharray: none; stroke-linecap: butt; stroke-dashoffset: 0; stroke-linejoin: miter; stroke-miterlimit: 10; fill: rgb(255,255,255); fill-rule: nonzero; opacity: 1;" vector-effect="non-scaling-stroke"  points="-13.72,-20.1 -13.72,20.09 13.72,20.09 13.72,13.77 -6.92,13.66 -7.04,-20.1 -13.72,-20.1 " />
</g>
		<g transform="matrix(1 0 0 1 -42.68 0.15)"  >
<rect style="stroke: rgb(255,255,255); stroke-width: 1; stroke-dasharray: none; stroke-linecap: butt; stroke-dashoffset: 0; stroke-linejoin: miter; stroke-miterlimit: 10; fill: rgb(255,255,255); fill-rule: nonzero; opacity: 1;" vector-effect="non-scaling-stroke"  x="-3.395" y="-19.98" rx="0" ry="0" width="6.79" height="39.96" />
</g>
</g>
</g>
</svg>