<svg width="144" height="144" viewBox="0 0 144 144" fill="none" xmlns="http://www.w3.org/2000/svg">
<g clip-path="url(#clip0_4_21)">
<path d="M64 112H80V80H112V64H80V32H64V64H32V80H64V112ZM16 144C11.6 144 7.832 142.435 4.696 139.304C1.56533 136.168 0 132.4 0 128V16C0 11.6 1.56533 7.832 4.696 4.696C7.832 1.56533 11.6 0 16 0H128C132.4 0 136.168 1.56533 139.304 4.696C142.435 7.832 144 11.6 144 16V128C144 132.4 142.435 136.168 139.304 139.304C136.168 142.435 132.4 144 128 144H16Z" fill="#CCCCCC"/>
</g>
<defs>
<clipPath id="clip0_4_21">
<rect width="144" height="144" fill="white"/>
</clipPath>
</defs>
</svg>
