<svg width="24" height="24" viewBox="0 0 28 28" fill="none" xmlns="http://www.w3.org/2000/svg">
<path d="M47.1359 12.2677C46.9729 11.7918 46.7608 11.3662 46.4998 10.991C46.2434 10.611 45.9382 10.2885 45.584 10.0236C45.2346 9.75855 44.8387 9.5581 44.3964 9.42222C43.954 9.28634 43.4701 9.22207 42.9446 9.22942C42.0829 9.24146 41.3026 9.47492 40.6035 9.92981C39.9044 10.3847 39.3527 11.0482 38.9483 11.9205C38.544 12.7927 38.3508 13.8584 38.3687 15.1178C38.3866 16.3771 38.6123 17.4371 39.046 18.2976C39.4797 19.1581 40.0595 19.8058 40.7854 20.2408C41.5114 20.6757 42.3241 20.887 43.2237 20.8744C44.0569 20.8627 44.7882 20.6749 45.4176 20.311C46.0516 19.9423 46.5415 19.4287 46.8873 18.7704C47.2378 18.1073 47.4067 17.3307 47.3941 16.4407L47.9354 16.5468L43.5608 16.6079L43.5386 15.0455L49.0779 14.9681L49.1001 16.5305C49.1171 17.7283 48.8762 18.7734 48.3775 19.6659C47.8835 20.5583 47.1925 21.2546 46.3046 21.7547C45.4214 22.2501 44.4022 22.5058 43.2471 22.5219C41.9593 22.5399 40.8235 22.2527 39.8396 21.6604C38.8604 21.0679 38.0907 20.2169 37.5304 19.1072C36.9748 17.9974 36.6861 16.6755 36.6643 15.1416C36.648 13.9912 36.7871 12.9545 37.0818 12.0318C37.3812 11.1042 37.8103 10.3122 38.3692 9.6556C38.9281 8.99906 39.5934 8.49255 40.3649 8.13609C41.1364 7.77963 41.9885 7.59489 42.9212 7.58186C43.6882 7.57114 44.4047 7.67714 45.0708 7.89986C45.7416 8.11778 46.3404 8.43379 46.8671 8.84787C47.3986 9.25715 47.8436 9.75051 48.2022 10.3279C48.5608 10.9006 48.8113 11.5388 48.9539 12.2423L47.1359 12.2677ZM55.1838 22.412C54.4926 22.4216 53.8635 22.3002 53.2964 22.0477C52.7292 21.7904 52.2764 21.4156 51.9379 20.9231C51.5994 20.4259 51.4251 19.8222 51.415 19.112C51.4061 18.4871 51.522 17.9788 51.7627 17.5871C52.0033 17.1907 52.328 16.8784 52.7367 16.6501C53.1454 16.4219 53.5976 16.2498 54.0931 16.134C54.5934 16.0133 55.0963 15.9163 55.602 15.843C56.2636 15.7485 56.8 15.6771 57.2113 15.6287C57.6272 15.5755 57.9291 15.4932 58.117 15.3817C58.3095 15.2701 58.4039 15.0793 58.4001 14.8095L58.3992 14.7527C58.3893 14.052 58.1898 13.5102 57.8008 13.1273C57.4166 12.7444 56.8386 12.5583 56.0669 12.5691C55.2668 12.5803 54.6419 12.7642 54.1924 13.1209C53.7429 13.4776 53.4286 13.8561 53.2496 14.2564L51.6508 13.7105C51.9255 13.0437 52.2969 12.5224 52.7651 12.1465C53.2379 11.7658 53.755 11.4981 54.3163 11.3435C54.8823 11.184 55.4399 11.1005 55.9891 11.0928C56.3394 11.0879 56.7424 11.1249 57.1982 11.2037C57.6585 11.2778 58.1036 11.4397 58.5333 11.6894C58.9678 11.939 59.3307 12.3199 59.6221 12.832C59.9135 13.344 60.0653 14.0333 60.0776 14.8997L60.1797 22.0864L58.5037 22.1099L58.4828 20.6327L58.3975 20.6339C58.2873 20.8722 58.1015 21.1282 57.8402 21.4017C57.5789 21.6753 57.2295 21.9098 56.7919 22.1054C56.3543 22.3009 55.8182 22.4031 55.1838 22.412ZM55.4181 20.9029C56.0809 20.8936 56.6377 20.7556 57.0885 20.4889C57.5441 20.222 57.8849 19.8811 58.111 19.4659C58.3419 19.0507 58.4541 18.6159 58.4477 18.1614L58.4259 16.6275C58.3561 16.7137 58.2009 16.794 57.9605 16.8684C57.7247 16.938 57.451 17.001 57.1392 17.0574C56.8322 17.1091 56.5322 17.1559 56.2392 17.1978C55.9508 17.235 55.7169 17.2667 55.5373 17.2929C55.1026 17.3558 54.6967 17.4538 54.3198 17.5869C53.9475 17.7152 53.6472 17.9065 53.4187 18.1606C53.195 18.41 53.0861 18.7477 53.0922 19.1738C53.1005 19.7562 53.3221 20.1934 53.7572 20.4857C54.1969 20.7731 54.7506 20.9122 55.4181 20.9029ZM64.7081 7.47629L64.9147 22.0203L63.2387 22.0437L63.0322 7.49971L64.7081 7.47629ZM69.4538 7.40998L69.6603 21.954L67.9844 21.9774L67.7778 7.4334L69.4538 7.40998ZM77.3066 22.0744C76.2556 22.0891 75.3457 21.8698 74.5768 21.4165C73.8127 20.9584 73.2187 20.3132 72.7949 19.481C72.3758 18.6439 72.1583 17.6668 72.1424 16.5494C72.1265 15.4321 72.3161 14.4445 72.7112 13.5867C73.1109 12.724 73.6743 12.0484 74.4013 11.56C75.133 11.0668 75.9913 10.8133 76.976 10.7995C77.5441 10.7916 78.1065 10.8784 78.6631 11.0601C79.2197 11.2417 79.7283 11.5424 80.1889 11.9621C80.6494 12.3771 81.0195 12.9307 81.2992 13.6229C81.579 14.3151 81.7261 15.1701 81.7405 16.188L81.7506 16.8982L73.3423 17.0157L73.3218 15.567L80.0257 15.4733C80.0169 14.8578 79.886 14.3103 79.633 13.8309C79.3847 13.3513 79.0336 12.9751 78.5799 12.702C78.1309 12.4289 77.6034 12.2966 76.9974 12.3051C76.3299 12.3144 75.7546 12.4882 75.2717 12.8264C74.7934 13.1598 74.4278 13.5911 74.1749 14.1202C73.922 14.6494 73.7998 15.2146 73.8083 15.8159L73.822 16.7817C73.8337 17.6055 73.9857 18.3018 74.2779 18.8707C74.5747 19.4348 74.9809 19.8624 75.4965 20.1535C76.012 20.4399 76.6082 20.5783 77.2852 20.5689C77.7255 20.5627 78.1224 20.4956 78.4757 20.3676C78.8337 20.2347 79.1411 20.041 79.3979 19.7864C79.6547 19.5272 79.8514 19.2071 79.988 18.8264L81.6137 19.2583C81.451 19.8098 81.1715 20.2968 80.7749 20.719C80.3784 21.1365 79.8858 21.4654 79.2973 21.7057C78.7088 21.9412 78.0452 22.0641 77.3066 22.0744ZM84.3695 21.7484L84.2145 10.8404L85.8337 10.8178L85.8571 12.4654L85.9707 12.4638C86.1619 11.9213 86.5155 11.4783 87.0315 11.1349C87.5475 10.7915 88.1322 10.6152 88.7855 10.6061C88.9086 10.6044 89.0625 10.6046 89.2472 10.6067C89.432 10.6089 89.5717 10.614 89.6665 10.6222L89.6907 12.3266C89.6337 12.3132 89.5032 12.2937 89.2993 12.2681C89.0999 12.2377 88.889 12.2241 88.6665 12.2272C88.1363 12.2346 87.6644 12.3525 87.2509 12.5808C86.8421 12.8044 86.5198 13.112 86.2838 13.5035C86.0526 13.8903 85.9404 14.3299 85.9474 14.8223L86.0454 21.725L84.3695 21.7484ZM93.2797 25.7152C92.9956 25.7192 92.742 25.6991 92.5188 25.6548C92.2957 25.6153 92.1412 25.5749 92.0554 25.5335L92.4605 24.0504C92.8691 24.1488 93.2295 24.1817 93.5416 24.1489C93.8536 24.1161 94.1286 23.9726 94.3665 23.7183C94.6092 23.4687 94.8284 23.0655 95.0241 22.5087L95.3245 21.6522L91.135 10.7437L92.953 10.7183L96.0876 19.3686L96.2012 19.367L99.0888 10.6326L100.907 10.6072L96.4541 23.1706C96.2538 23.7369 96.0024 24.2069 95.6999 24.5804C95.3975 24.9588 95.044 25.2407 94.6394 25.4263C94.2395 25.6118 93.7863 25.7081 93.2797 25.7152Z" fill="white"/>
<path fill-rule="evenodd" clip-rule="evenodd" d="M21.5064 6.78027H4.89707C4.67681 6.78027 4.46558 6.86588 4.30984 7.01825C4.15409 7.17062 4.0666 7.37729 4.0666 7.59277V23.8428C4.0666 24.0583 4.15409 24.2649 4.30984 24.4173C4.46558 24.5697 4.67681 24.6553 4.89707 24.6553H21.5064C21.7267 24.6553 21.9379 24.5697 22.0937 24.4173C22.2494 24.2649 22.3369 24.0583 22.3369 23.8428V7.59277C22.3369 7.37729 22.2494 7.17062 22.0937 7.01825C21.9379 6.86588 21.7267 6.78027 21.5064 6.78027ZM4.89707 4.34277C4.01605 4.34277 3.17112 4.68518 2.54815 5.29468C1.92518 5.90417 1.5752 6.73082 1.5752 7.59277V23.8428C1.5752 24.7047 1.92518 25.5314 2.54815 26.1409C3.17112 26.7504 4.01605 27.0928 4.89707 27.0928H21.5064C22.3874 27.0928 23.2324 26.7504 23.8553 26.1409C24.4783 25.5314 24.8283 24.7047 24.8283 23.8428V7.59277C24.8283 6.73082 24.4783 5.90417 23.8553 5.29468C23.2324 4.68518 22.3874 4.34277 21.5064 4.34277H4.89707ZM19.8455 20.3604L15.6932 15.7178L11.5807 20.3165L9.04941 17.3428L6.558 20.2678V22.2178H19.8455V20.3604ZM10.7103 15.7178C11.3711 15.7178 12.0048 15.461 12.472 15.0038C12.9393 14.5467 13.2017 13.9267 13.2017 13.2803C13.2017 12.6338 12.9393 12.0138 12.472 11.5567C12.0048 11.0996 11.3711 10.8428 10.7103 10.8428C10.0496 10.8428 9.41588 11.0996 8.94865 11.5567C8.48143 12.0138 8.21894 12.6338 8.21894 13.2803C8.21894 13.9267 8.48143 14.5467 8.94865 15.0038C9.41588 15.461 10.0496 15.7178 10.7103 15.7178Z" fill="#CCCCCC"/>
</svg>
