<svg xmlns="http://www.w3.org/2000/svg" xmlns:xlink="http://www.w3.org/1999/xlink" version="1.1" width="256" height="256" viewBox="0 0 256 256" xml:space="preserve">

<defs>
</defs>
<g style="stroke: none; stroke-width: 0; stroke-dasharray: none; stroke-linecap: butt; stroke-linejoin: miter; stroke-miterlimit: 10; fill: none; fill-rule: nonzero; opacity: 1;" transform="translate(1.4065934065934016 1.4065934065934016) scale(2.81 2.81)" >
	<circle cx="45" cy="45" r="45" style="stroke: none; stroke-width: 1; stroke-dasharray: none; stroke-linecap: butt; stroke-linejoin: miter; stroke-miterlimit: 10; fill: rgb(32,196,203); fill-rule: nonzero; opacity: 1;" transform="  matrix(1 0 0 1 0 0) "/>
	<line x1="-15.738" y1="0" x2="15.738" y2="0" style="stroke: none; stroke-width: 1; stroke-dasharray: none; stroke-linecap: butt; stroke-linejoin: miter; stroke-miterlimit: 10; fill: rgb(27,167,173); fill-rule: nonzero; opacity: 1;" transform=" matrix(1 0 0 1 0 0) "/>
	<path d="M 58.444 76.463 H 26.969 c -1.657 0 -3 -1.343 -3 -3 s 1.343 -3 3 -3 h 31.475 c 1.657 0 3 1.343 3 3 S 60.102 76.463 58.444 76.463 z" style="stroke: none; stroke-width: 1; stroke-dasharray: none; stroke-linecap: butt; stroke-linejoin: miter; stroke-miterlimit: 10; fill: rgb(27,167,173); fill-rule: nonzero; opacity: 1;" transform=" matrix(1 0 0 1 0 0) " stroke-linecap="round" />
	<path d="M 61.604 73.304 H 30.128 c -1.657 0 -3 -1.343 -3 -3 s 1.343 -3 3 -3 h 31.475 c 1.657 0 3 1.343 3 3 S 63.261 73.304 61.604 73.304 z" style="stroke: none; stroke-width: 1; stroke-dasharray: none; stroke-linecap: butt; stroke-linejoin: miter; stroke-miterlimit: 10; fill: rgb(255,255,255); fill-rule: nonzero; opacity: 1;" transform=" matrix(1 0 0 1 0 0) " stroke-linecap="round" />
	<path d="M 43.441 62.459 c -0.699 0 -1.391 -0.244 -1.944 -0.715 L 25.759 48.356 c -1.262 -1.073 -1.415 -2.967 -0.341 -4.229 s 2.966 -1.416 4.229 -0.341 l 10.794 9.183 v -35.08 c 0 -1.657 1.343 -3 3 -3 s 3 1.343 3 3 v 41.57 c 0 1.17 -0.68 2.232 -1.741 2.724 C 44.297 62.368 43.868 62.459 43.441 62.459 z" style="stroke: none; stroke-width: 1; stroke-dasharray: none; stroke-linecap: butt; stroke-linejoin: miter; stroke-miterlimit: 10; fill: rgb(27,167,173); fill-rule: nonzero; opacity: 1;" transform=" matrix(1 0 0 1 0 0) " stroke-linecap="round" />
	<path d="M 43.44 62.459 c -0.427 0 -0.856 -0.091 -1.258 -0.276 c -1.062 -0.491 -1.741 -1.554 -1.741 -2.724 v -41.57 c 0 -1.657 1.343 -3 3 -3 s 3 1.343 3 3 v 35.079 l 10.793 -9.182 c 1.261 -1.072 3.155 -0.922 4.229 0.341 c 1.073 1.262 0.921 3.156 -0.341 4.229 L 45.384 61.744 C 44.831 62.215 44.139 62.459 43.44 62.459 z" style="stroke: none; stroke-width: 1; stroke-dasharray: none; stroke-linecap: butt; stroke-linejoin: miter; stroke-miterlimit: 10; fill: rgb(27,167,173); fill-rule: nonzero; opacity: 1;" transform=" matrix(1 0 0 1 0 0) " stroke-linecap="round" />
	<path d="M 45.867 60.032 c -0.699 0 -1.391 -0.244 -1.944 -0.715 L 28.185 45.93 c -1.262 -1.074 -1.415 -2.967 -0.341 -4.229 c 1.073 -1.263 2.966 -1.415 4.229 -0.341 l 10.794 9.182 V 15.463 c 0 -1.657 1.343 -3 3 -3 c 1.657 0 3 1.343 3 3 v 41.569 c 0 1.17 -0.68 2.232 -1.741 2.724 C 46.723 59.941 46.293 60.032 45.867 60.032 z" style="stroke: none; stroke-width: 1; stroke-dasharray: none; stroke-linecap: butt; stroke-linejoin: miter; stroke-miterlimit: 10; fill: rgb(255,255,255); fill-rule: nonzero; opacity: 1;" transform=" matrix(1 0 0 1 0 0) " stroke-linecap="round" />
	<path d="M 45.866 60.032 c -0.427 0 -0.856 -0.091 -1.258 -0.276 c -1.062 -0.491 -1.741 -1.554 -1.741 -2.724 V 15.463 c 0 -1.657 1.343 -3 3 -3 c 1.657 0 3 1.343 3 3 v 35.079 L 59.66 41.36 c 1.26 -1.072 3.154 -0.921 4.229 0.341 c 1.073 1.262 0.921 3.155 -0.342 4.229 L 47.81 59.317 C 47.257 59.788 46.564 60.032 45.866 60.032 z" style="stroke: none; stroke-width: 1; stroke-dasharray: none; stroke-linecap: butt; stroke-linejoin: miter; stroke-miterlimit: 10; fill: rgb(255,255,255); fill-rule: nonzero; opacity: 1;" transform=" matrix(1 0 0 1 0 0) " stroke-linecap="round" />
</g>
</svg>