<svg width="24" height="24" viewBox="0 0 25 25" fill="none" xmlns="http://www.w3.org/2000/svg">
<g clip-path="url(#clip0_4_275)">
<path fill-rule="evenodd" clip-rule="evenodd" d="M14.8438 22.6563L5.46875 18.75V6.25001L14.8438 2.34376V22.6563ZM4.08594 20.7125C3.80132 20.5938 3.5582 20.3935 3.3872 20.1368C3.21621 19.8802 3.12497 19.5787 3.125 19.2703V5.7297C3.12497 5.42131 3.21621 5.11981 3.3872 4.86317C3.5582 4.60654 3.80132 4.40624 4.08594 4.28751L13.9422 0.179698C14.2984 0.0312505 14.6858 -0.0269399 15.0699 0.0102942C15.454 0.0475283 15.823 0.179035 16.144 0.393136C16.4651 0.607238 16.7284 0.897309 16.9104 1.23759C17.0924 1.57788 17.1876 1.95785 17.1875 2.34376V3.12501H19.1406C20.65 3.12501 21.875 4.34845 21.875 5.85939V19.1406C21.875 19.8658 21.5869 20.5613 21.0741 21.0741C20.5613 21.5869 19.8658 21.875 19.1406 21.875H17.1875V22.6563C17.1876 23.0422 17.0924 23.4221 16.9104 23.7624C16.7284 24.1027 16.4651 24.3928 16.144 24.6069C15.823 24.821 15.454 24.9525 15.0699 24.9897C14.6858 25.027 14.2984 24.9688 13.9422 24.8203L4.08594 20.7125ZM17.1875 19.5313H19.1406C19.2442 19.5313 19.3436 19.4901 19.4168 19.4168C19.4901 19.3436 19.5312 19.2442 19.5312 19.1406V5.85939C19.5312 5.75579 19.4901 5.65643 19.4168 5.58317C19.3436 5.50992 19.2442 5.46876 19.1406 5.46876H17.1875V19.5313Z" fill="#CCCCCC"/>
</g>
<defs>
<clipPath id="clip0_4_275">
<rect width="25" height="25" fill="white"/>
</clipPath>
</defs>
</svg>
