<svg width="40" height="40" viewBox="0 0 40 40" fill="none" xmlns="http://www.w3.org/2000/svg">
<g clip-path="url(#clip0_4_242)">
<path fill-rule="evenodd" clip-rule="evenodd" d="M14.7625 0.700297C18.6957 -0.367645 22.8613 -0.20848 26.7015 1.15648C30.5417 2.52144 33.8732 5.02704 36.25 8.3378V4.3753C36.25 3.87802 36.4476 3.4011 36.7992 3.04947C37.1508 2.69784 37.6277 2.5003 38.125 2.5003C38.6223 2.5003 39.0992 2.69784 39.4508 3.04947C39.8025 3.4011 40 3.87802 40 4.3753V15.0003H29.375C28.8777 15.0003 28.4008 14.8028 28.0492 14.4511C27.6976 14.0995 27.5 13.6226 27.5 13.1253C27.5 12.628 27.6976 12.1511 28.0492 11.7995C28.4008 11.4478 28.8777 11.2503 29.375 11.2503H33.6925C31.7342 8.18652 28.8049 5.86808 25.3732 4.66588C21.9415 3.46367 18.2057 3.44718 14.7636 4.61903C11.3214 5.79089 8.37172 8.08337 6.38641 11.1297C4.40111 14.1761 3.4949 17.8003 3.81277 21.4226C4.13064 25.0448 5.65422 28.4558 8.13976 31.1098C10.6253 33.7639 13.9292 35.5076 17.5228 36.062C21.1165 36.6164 24.7923 35.9496 27.9621 34.168C31.132 32.3865 33.6127 29.5933 35.0075 26.2353C35.0981 26.0025 35.2342 25.7901 35.408 25.6107C35.5817 25.4312 35.7896 25.2883 36.0194 25.1903C36.2491 25.0922 36.4962 25.0411 36.7459 25.0399C36.9957 25.0387 37.2433 25.0874 37.474 25.1832C37.7047 25.279 37.9139 25.4199 38.0894 25.5977C38.2649 25.7754 38.4031 25.9865 38.4959 26.2184C38.5887 26.4503 38.6342 26.6985 38.6297 26.9482C38.6253 27.198 38.571 27.4443 38.47 27.6728C37.167 30.8091 35.0869 33.562 32.4255 35.6719C29.7642 37.7818 26.6094 39.1793 23.2586 39.7325C19.9077 40.2858 16.4712 39.9766 13.2728 38.8342C10.0745 37.6918 7.21981 35.7537 4.9778 33.2027C2.73578 30.6517 1.18032 27.5717 0.458026 24.2532C-0.264264 20.9347 -0.129586 17.4869 0.849365 14.2348C1.82832 10.9827 3.61929 8.03347 6.05347 5.66511C8.48765 3.29675 11.4848 1.58726 14.7625 0.697797V0.700297Z" fill="#CCCCCC"/>
</g>
<defs>
<clipPath id="clip0_4_242">
<rect width="40" height="40" fill="white"/>
</clipPath>
</defs>
</svg>
