<svg xmlns="http://www.w3.org/2000/svg" xmlns:xlink="http://www.w3.org/1999/xlink" version="1.1" width="256" height="256" viewBox="0 0 256 256" xml:space="preserve">

<defs>
</defs>
<g style="stroke: none; stroke-width: 0; stroke-dasharray: none; stroke-linecap: butt; stroke-linejoin: miter; stroke-miterlimit: 10; fill: none; fill-rule: nonzero; opacity: 1;" transform="translate(1.4065934065934016 1.4065934065934016) scale(2.81 2.81)" >
	<path d="M 55.492 66.081 H 34.507 c -1.595 0 -2.893 -1.298 -2.893 -2.893 v -0.635 c 0 -3.827 -1.79 -7.438 -4.911 -9.908 c -7.659 -6.062 -11.82 -15.511 -11.131 -25.276 C 16.606 12.722 28.44 0.982 43.1 0.062 c 8.243 -0.525 16.089 2.296 22.092 7.934 l 0 0 c 5.916 5.556 9.309 13.395 9.309 21.509 c 0 9.173 -4.16 17.667 -11.413 23.303 c -2.945 2.289 -4.704 5.933 -4.704 9.745 v 0.637 C 58.384 64.783 57.087 66.081 55.492 66.081 z M 45.032 2 c -0.6 0 -1.201 0.019 -1.806 0.057 c -13.665 0.858 -24.695 11.8 -25.658 25.453 c -0.643 9.105 3.236 17.916 10.377 23.567 c 3.603 2.851 5.669 7.034 5.669 11.477 v 0.635 c 0 0.492 0.4 0.893 0.893 0.893 h 20.985 c 0.491 0 0.892 -0.4 0.892 -0.893 v -0.637 c 0 -4.426 2.048 -8.659 5.478 -11.325 c 6.762 -5.253 10.64 -13.171 10.64 -21.723 c 0 -7.563 -3.163 -14.872 -8.678 -20.051 l 0 0 C 58.667 4.611 52.052 2 45.032 2 z" style="stroke: none; stroke-width: 1; stroke-dasharray: none; stroke-linecap: butt; stroke-linejoin: miter; stroke-miterlimit: 10; fill: rgb(71,73,77); fill-rule: nonzero; opacity: 1;" transform=" matrix(1 0 0 1 0 0) " stroke-linecap="round" />
	<path d="M 55.492 74.054 H 34.507 c -1.595 0 -2.893 -1.298 -2.893 -2.893 s 1.297 -2.893 2.893 -2.893 h 20.985 c 1.595 0 2.892 1.298 2.892 2.893 S 57.087 74.054 55.492 74.054 z M 34.507 70.269 c -0.492 0 -0.893 0.4 -0.893 0.893 s 0.4 0.893 0.893 0.893 h 20.985 c 0.491 0 0.892 -0.4 0.892 -0.893 s -0.4 -0.893 -0.892 -0.893 H 34.507 z" style="stroke: none; stroke-width: 1; stroke-dasharray: none; stroke-linecap: butt; stroke-linejoin: miter; stroke-miterlimit: 10; fill: rgb(71,73,77); fill-rule: nonzero; opacity: 1;" transform=" matrix(1 0 0 1 0 0) " stroke-linecap="round" />
	<path d="M 55.492 82.027 H 34.507 c -1.595 0 -2.893 -1.298 -2.893 -2.893 s 1.297 -2.893 2.893 -2.893 h 20.985 c 1.595 0 2.892 1.298 2.892 2.893 S 57.087 82.027 55.492 82.027 z M 34.507 78.242 c -0.492 0 -0.893 0.4 -0.893 0.893 s 0.4 0.893 0.893 0.893 h 20.985 c 0.491 0 0.892 -0.4 0.892 -0.893 s -0.4 -0.893 -0.892 -0.893 H 34.507 z" style="stroke: none; stroke-width: 1; stroke-dasharray: none; stroke-linecap: butt; stroke-linejoin: miter; stroke-miterlimit: 10; fill: rgb(71,73,77); fill-rule: nonzero; opacity: 1;" transform=" matrix(1 0 0 1 0 0) " stroke-linecap="round" />
	<path d="M 52.937 90 H 37.062 c -1.595 0 -2.892 -1.298 -2.892 -2.893 s 1.297 -2.893 2.892 -2.893 h 15.875 c 1.595 0 2.893 1.298 2.893 2.893 S 54.531 90 52.937 90 z M 37.062 86.215 c -0.492 0 -0.892 0.4 -0.892 0.893 S 36.57 88 37.062 88 h 15.875 c 0.492 0 0.893 -0.4 0.893 -0.893 s -0.4 -0.893 -0.893 -0.893 H 37.062 z" style="stroke: none; stroke-width: 1; stroke-dasharray: none; stroke-linecap: butt; stroke-linejoin: miter; stroke-miterlimit: 10; fill: rgb(71,73,77); fill-rule: nonzero; opacity: 1;" transform=" matrix(1 0 0 1 0 0) " stroke-linecap="round" />
	<path d="M 45 39.017 c -2.316 0 -4.201 -1.884 -4.201 -4.201 v -2.847 c 0 -1.15 0.48 -2.263 1.317 -3.054 l 5.052 -4.77 c 0.476 -0.505 0.759 -1.218 0.759 -1.969 v -0.189 c 0 -0.796 -0.314 -1.541 -0.885 -2.097 c -0.571 -0.558 -1.333 -0.847 -2.119 -0.83 c -1.572 0.041 -2.85 1.425 -2.85 3.087 c 0 2.316 -1.884 4.201 -4.201 4.201 s -4.201 -1.884 -4.201 -4.201 c 0 -6.176 4.948 -11.327 11.031 -11.483 c 3.089 -0.078 5.991 1.058 8.201 3.21 c 2.207 2.149 3.423 5.031 3.423 8.113 v 0.189 c 0 2.97 -1.14 5.775 -3.21 7.899 l -0.115 0.115 l -3.802 3.589 v 1.036 c 0.001 1.121 -0.435 2.176 -1.228 2.97 S 46.123 39.017 45 39.017 z M 45.012 17.059 c 1.285 0 2.498 0.493 3.427 1.398 c 0.96 0.936 1.488 2.189 1.488 3.529 v 0.189 c 0 1.265 -0.478 2.466 -1.346 3.383 l -5.091 4.81 c -0.438 0.415 -0.69 0.998 -0.69 1.601 v 2.847 c 0 1.213 0.987 2.201 2.201 2.201 c 0.588 0 1.142 -0.229 1.557 -0.645 c 0.415 -0.416 0.644 -0.968 0.643 -1.556 v -1.899 l 4.483 -4.236 c 1.705 -1.75 2.644 -4.06 2.644 -6.505 v -0.189 c 0 -2.538 -1.001 -4.91 -2.817 -6.68 c -1.82 -1.772 -4.229 -2.7 -6.753 -2.644 c -5.009 0.129 -9.083 4.383 -9.083 9.484 c 0 1.213 0.987 2.201 2.201 2.201 s 2.201 -0.987 2.201 -2.201 c 0 -2.736 2.151 -5.018 4.795 -5.086 C 44.917 17.06 44.964 17.059 45.012 17.059 z" style="stroke: none; stroke-width: 1; stroke-dasharray: none; stroke-linecap: butt; stroke-linejoin: miter; stroke-miterlimit: 10; fill: rgb(71,73,77); fill-rule: nonzero; opacity: 1;" transform=" matrix(1 0 0 1 0 0) " stroke-linecap="round" />
	<path d="M 45 49.957 c -1.106 0 -2.19 -0.448 -2.972 -1.23 c -0.195 -0.194 -0.371 -0.405 -0.52 -0.624 c -0.165 -0.257 -0.287 -0.493 -0.389 -0.749 c -0.106 -0.257 -0.188 -0.52 -0.237 -0.772 c -0.056 -0.291 -0.083 -0.557 -0.083 -0.816 c 0 -0.262 0.027 -0.538 0.082 -0.821 c 0.051 -0.258 0.132 -0.521 0.242 -0.787 c 0.098 -0.244 0.22 -0.481 0.369 -0.715 c 0.191 -0.271 0.363 -0.476 0.537 -0.65 c 0.774 -0.783 1.858 -1.235 2.971 -1.235 c 1.102 0 2.185 0.451 2.971 1.236 c 0.182 0.181 0.354 0.392 0.506 0.604 c 0.183 0.283 0.304 0.52 0.404 0.771 c 0.104 0.249 0.186 0.512 0.237 0.768 c 0.056 0.297 0.083 0.572 0.083 0.829 c 0 0.255 -0.026 0.519 -0.081 0.808 c -0.053 0.267 -0.134 0.529 -0.244 0.793 c -0.107 0.269 -0.239 0.516 -0.397 0.744 c -0.122 0.191 -0.299 0.409 -0.507 0.617 c -0.217 0.217 -0.432 0.392 -0.657 0.536 c -0.249 0.159 -0.479 0.282 -0.701 0.376 c -0.226 0.094 -0.46 0.166 -0.765 0.236 C 45.553 49.933 45.287 49.957 45 49.957 z M 45 43.557 c -0.573 0 -1.153 0.242 -1.553 0.646 c -0.11 0.11 -0.209 0.233 -0.296 0.356 c -0.052 0.083 -0.119 0.212 -0.175 0.353 c -0.059 0.142 -0.104 0.278 -0.131 0.415 c -0.027 0.141 -0.045 0.292 -0.045 0.438 c 0 0.145 0.018 0.289 0.046 0.434 c 0.026 0.133 0.072 0.269 0.126 0.4 c 0.061 0.149 0.128 0.279 0.207 0.403 c 0.067 0.098 0.163 0.209 0.263 0.31 c 0.513 0.513 1.27 0.748 1.994 0.606 c 0.117 -0.027 0.265 -0.065 0.406 -0.124 c 0.135 -0.058 0.269 -0.135 0.397 -0.217 c 0.102 -0.065 0.206 -0.151 0.319 -0.265 c 0.105 -0.105 0.191 -0.21 0.256 -0.311 c 0.093 -0.136 0.155 -0.255 0.212 -0.395 c 0.06 -0.143 0.104 -0.279 0.132 -0.416 c 0.025 -0.135 0.044 -0.28 0.044 -0.427 c 0 -0.147 -0.019 -0.3 -0.046 -0.447 c -0.025 -0.124 -0.07 -0.261 -0.125 -0.392 c -0.062 -0.154 -0.13 -0.284 -0.209 -0.409 c -0.058 -0.077 -0.157 -0.203 -0.264 -0.309 C 46.144 43.794 45.576 43.557 45 43.557 z" style="stroke: none; stroke-width: 1; stroke-dasharray: none; stroke-linecap: butt; stroke-linejoin: miter; stroke-miterlimit: 10; fill: rgb(71,73,77); fill-rule: nonzero; opacity: 1;" transform=" matrix(1 0 0 1 0 0) " stroke-linecap="round" />
</g>
</svg>